<svg width="512" height="512" viewBox="0 0 512 512" fill="none" xmlns="http://www.w3.org/2000/svg">
  <defs>
    <linearGradient id="bg" x1="94" y1="66" x2="430" y2="449" gradientUnits="userSpaceOnUse">
      <stop stop-color="#F8FCFF"/>
      <stop offset=".48" stop-color="#DDEBFF"/>
      <stop offset="1" stop-color="#C9E1FF"/>
    </linearGradient>
    <linearGradient id="blue" x1="178" y1="186" x2="368" y2="362" gradientUnits="userSpaceOnUse">
      <stop stop-color="#23C8FF"/>
      <stop offset=".45" stop-color="#1478FF"/>
      <stop offset="1" stop-color="#2440E8"/>
    </linearGradient>
    <linearGradient id="glass" x1="140" y1="194" x2="404" y2="410" gradientUnits="userSpaceOnUse">
      <stop stop-color="#FFFFFF" stop-opacity=".88"/>
      <stop offset=".55" stop-color="#DDF2FF" stop-opacity=".62"/>
      <stop offset="1" stop-color="#BBD9FF" stop-opacity=".72"/>
    </linearGradient>
    <filter id="shadow" x="68" y="52" width="388" height="420" filterUnits="userSpaceOnUse">
      <feDropShadow dx="0" dy="24" stdDeviation="24" flood-color="#2B65FF" flood-opacity=".22"/>
    </filter>
    <filter id="glow" x="126" y="150" width="286" height="258" filterUnits="userSpaceOnUse">
      <feGaussianBlur stdDeviation="10" result="b"/>
      <feMerge><feMergeNode in="b"/><feMergeNode in="SourceGraphic"/></feMerge>
    </filter>
  </defs>
  <rect x="42" y="42" width="428" height="428" rx="112" fill="url(#bg)"/>
  <circle cx="117" cy="111" r="54" fill="#FFFFFF" fill-opacity=".42"/>
  <circle cx="403" cy="390" r="69" fill="#7FAEFF" fill-opacity=".16"/>
  <g filter="url(#shadow)">
    <path d="M187 214V177C187 126.19 218.34 94 260 94C301.66 94 333 126.19 333 177V219" stroke="url(#glass)" stroke-width="42" stroke-linecap="round"/>
    <path d="M187 214V177C187 126.19 218.34 94 260 94C301.66 94 333 126.19 333 177V219" stroke="#56A8FF" stroke-opacity=".42" stroke-width="18" stroke-linecap="round"/>
    <path d="M116 225C116 207.327 130.327 193 148 193H238L270 222H364C381.673 222 396 236.327 396 254V363C396 382.882 379.882 399 360 399H152C132.118 399 116 382.882 116 363V225Z" fill="url(#glass)" stroke="white" stroke-opacity=".88" stroke-width="5"/>
    <rect x="159" y="244" width="196" height="117" rx="32" fill="url(#blue)" stroke="#70E9FF" stroke-width="3" filter="url(#glow)"/>
    <path d="M201 280L234 302L201 324" stroke="white" stroke-width="16" stroke-linecap="round" stroke-linejoin="round"/>
    <path d="M263 325H315" stroke="white" stroke-width="16" stroke-linecap="round"/>
    <path d="M142 221C154 208 166 205 186 205H231L254 226H365" stroke="white" stroke-opacity=".56" stroke-width="8" stroke-linecap="round"/>
  </g>
</svg>
